<svg xmlns="http://www.w3.org/2000/svg" viewBox="0 0 1200 780" role="img" aria-labelledby="title desc">
  <title id="title">True North Kromes Client Portal</title>
  <desc id="desc">A visual preview of the True North Kromes client portal login screen.</desc>
  <rect width="1200" height="780" fill="#eef4f8"/>
  <rect x="54" y="48" width="1092" height="684" rx="10" fill="#fff" stroke="#c8d2da" stroke-width="2"/>
  <rect x="54" y="48" width="1092" height="78" rx="10" fill="#0d1b2a"/>
  <rect x="54" y="110" width="1092" height="16" fill="#0d1b2a"/>
  <circle cx="98" cy="87" r="22" fill="#d5a84f"/>
  <path d="M88 98V76h6v14l12-14h7L101 89l13 15h-8L96 91v14z" fill="#0d1b2a"/>
  <text x="138" y="95" fill="#fff" font-family="Arial, sans-serif" font-size="25" font-weight="700">TRUE NORTH KROMES</text>
  <text x="1080" y="95" text-anchor="end" fill="#d5a84f" font-family="Arial, sans-serif" font-size="14" letter-spacing="2">CLIENT PORTAL</text>
  <rect x="54" y="126" width="270" height="606" fill="#f4f7f9"/>
  <text x="92" y="184" fill="#65727d" font-family="Arial, sans-serif" font-size="13" letter-spacing="2">WORKSPACE</text>
  <rect x="84" y="216" width="210" height="44" rx="5" fill="#d5a84f"/>
  <text x="108" y="244" fill="#0d1b2a" font-family="Arial, sans-serif" font-size="15" font-weight="700">Dashboard</text>
  <text x="108" y="294" fill="#52606b" font-family="Arial, sans-serif" font-size="15">Orders</text>
  <text x="108" y="338" fill="#52606b" font-family="Arial, sans-serif" font-size="15">Upload files</text>
  <text x="108" y="382" fill="#52606b" font-family="Arial, sans-serif" font-size="15">Messages</text>
  <text x="108" y="426" fill="#52606b" font-family="Arial, sans-serif" font-size="15">Account</text>
  <text x="390" y="204" fill="#0d1b2a" font-family="Arial, sans-serif" font-size="30" font-weight="700">Welcome back</text>
  <text x="390" y="238" fill="#65727d" font-family="Arial, sans-serif" font-size="16">Sign in to manage your cases and orders.</text>
  <rect x="390" y="286" width="650" height="86" rx="6" fill="#f6f8fa" stroke="#d5dde3"/>
  <text x="418" y="318" fill="#65727d" font-family="Arial, sans-serif" font-size="13">EMAIL ADDRESS</text>
  <text x="418" y="349" fill="#27343e" font-family="Arial, sans-serif" font-size="16">your@email.com</text>
  <rect x="390" y="394" width="650" height="86" rx="6" fill="#f6f8fa" stroke="#d5dde3"/>
  <text x="418" y="426" fill="#65727d" font-family="Arial, sans-serif" font-size="13">PASSWORD</text>
  <text x="418" y="457" fill="#27343e" font-family="Arial, sans-serif" font-size="16">••••••••••••</text>
  <rect x="390" y="520" width="214" height="54" rx="5" fill="#0d1b2a"/>
  <text x="497" y="554" text-anchor="middle" fill="#fff" font-family="Arial, sans-serif" font-size="15" font-weight="700">Sign in</text>
  <text x="390" y="620" fill="#55758c" font-family="Arial, sans-serif" font-size="14">Need help signing in?</text>
</svg>
